<svg xmlns="http://www.w3.org/2000/svg" data-name="Layer 1" viewBox="0 0 36 36"><g data-name="Layer 2"><g data-name="Utility Surface"><path d="M29.63.64H6.37A6.376 6.376 0 0 0 0 7.02v21.96a6.376 6.376 0 0 0 6.37 6.38h23.26A6.376 6.376 0 0 0 36 28.98V7.02A6.376 6.376 0 0 0 29.63.64ZM18.61 23.11a4.824 4.824 0 0 1-2.08 1.63 7.876 7.876 0 0 1-3.14.57 11.54 11.54 0 0 1-2.42-.23 6.518 6.518 0 0 1-1.71-.58.399.399 0 0 1-.19-.4v-2.83a.161.161 0 0 1 .06-.13.154.154 0 0 1 .16.01 7.296 7.296 0 0 0 2 .93 8.515 8.515 0 0 0 2.19.31 3.455 3.455 0 0 0 1.94-.42 1.212 1.212 0 0 0 .58-1.04 1.32 1.32 0 0 0-.19-.72 2.09 2.09 0 0 0-.66-.63 7.558 7.558 0 0 0-1.31-.64l-1.19-.5a8.87 8.87 0 0 1-2.27-1.32 3.53 3.53 0 0 1-1.02-1.51 4.952 4.952 0 0 1-.31-1.74 4.353 4.353 0 0 1 .64-2.33 4.078 4.078 0 0 1 1.79-1.65 7.076 7.076 0 0 1 3.14-.61 15.145 15.145 0 0 1 2.13.14 5.11 5.11 0 0 1 1.58.45.346.346 0 0 1 .17.31v2.69a.239.239 0 0 1-.06.11c-.04.04-.09.03-.15-.01a6.298 6.298 0 0 0-1.67-.6 9.352 9.352 0 0 0-1.97-.21 4.562 4.562 0 0 0-1.17.12 2.98 2.98 0 0 0-.77.29 1.145 1.145 0 0 0-.44.46 1.193 1.193 0 0 0-.15.55 1.15 1.15 0 0 0 .22.68 2.275 2.275 0 0 0 .71.6c.45.25.91.49 1.38.7l.88.33a9.505 9.505 0 0 1 2.45 1.37A4.055 4.055 0 0 1 19 18.83a4.726 4.726 0 0 1 .36 1.82 4.225 4.225 0 0 1-.75 2.46Zm8.88-7.27a.148.148 0 0 1-.12.17h-2.38v5.09a1.865 1.865 0 0 0 .28 1.15 1.493 1.493 0 0 0 1.13.35c.14 0 .27 0 .4-.01s.25-.02.38-.04a.195.195 0 0 1 .13.01.166.166 0 0 1 .06.16v1.95c0 .17-.06.28-.19.31-.31.1-.63.17-.95.24a7.299 7.299 0 0 1-1.14.09 3.48 3.48 0 0 1-2.43-.81 3.374 3.374 0 0 1-.77-2.59v-5.9h-1.62c-.13 0-.19-.07-.19-.21v-1.97c0-.13.07-.19.22-.19h1.61c.02-.27.04-.97.06-1.33.02-.35.06-.71.1-1.07s.07-.64.1-.87c.02-.04-.06-.09-.03-.13a.2.2 0 0 1 .12-.08l2.71-.36a.244.244 0 0 1 .12 0c.03.02.04.07.04.15-.03.36-.05.86-.07 1.48-.01.63-.03 1.62-.04 2.21h2.33c.09 0 .14.06.14.19Z" data-name="Outline no shadow" style="fill:#fff"/></g></g></svg>