<svg xmlns="http://www.w3.org/2000/svg" id="production" width="32" height="32" viewBox="0 0 32 32"><defs><style>.cls-1{fill:#4b4b4b}</style></defs><path d="M17.993 30.064a1.984 1.984 0 0 1-1.488-.673L10.825 23H5.06A5.066 5.066 0 0 1 0 17.94V7.06A5.065 5.065 0 0 1 5.06 2h21.88A5.065 5.065 0 0 1 32 7.06v10.88A5.066 5.066 0 0 1 26.94 23H20v5.063a1.985 1.985 0 0 1-1.29 1.869 2.008 2.008 0 0 1-.717.132ZM5.06 4A3.063 3.063 0 0 0 2 7.06v10.88A3.064 3.064 0 0 0 5.06 21h6.213a1 1 0 0 1 .748.336L18 28.063V22a1 1 0 0 1 1-1h7.94A3.064 3.064 0 0 0 30 17.94V7.06A3.063 3.063 0 0 0 26.94 4Z" class="cls-1"/><circle cx="9.704" cy="12.5" r="2.099" class="cls-1"/><circle cx="16" cy="12.5" r="2.099" class="cls-1"/><circle cx="22.296" cy="12.5" r="2.099" class="cls-1"/></svg>