<svg xmlns="http://www.w3.org/2000/svg" width="50" height="50" data-name="Group 155509" viewBox="0 0 50 50"><rect width="50" height="50" rx="25"/><path fill="#fff" d="M35.06 29.931a13.555 13.555 0 0 1-1.34 2.41 12.244 12.244 0 0 1-1.727 2.087 3.349 3.349 0 0 1-2.219.977 5.562 5.562 0 0 1-2.05-.489 5.882 5.882 0 0 0-2.207-.488 6.081 6.081 0 0 0-2.269.488 6.106 6.106 0 0 1-1.961.516 3.154 3.154 0 0 1-2.269-1 12.857 12.857 0 0 1-1.806-2.161 14.943 14.943 0 0 1-1.91-3.793 13.89 13.89 0 0 1-.8-4.521 8.256 8.256 0 0 1 1.084-4.319 6.36 6.36 0 0 1 2.271-2.3 6.108 6.108 0 0 1 3.07-.866 7.228 7.228 0 0 1 2.374.553 7.633 7.633 0 0 0 1.883.554 11.269 11.269 0 0 0 2.088-.652 6.9 6.9 0 0 1 2.839-.5 6.027 6.027 0 0 1 4.719 2.476 5.252 5.252 0 0 0-2.785 4.771 5.263 5.263 0 0 0 1.728 3.966 5.679 5.679 0 0 0 1.727 1.133q-.208.6-.44 1.156Zm-4.811-18.928a5.319 5.319 0 0 1-1.363 3.489 4.645 4.645 0 0 1-3.858 1.9 3.881 3.881 0 0 1-.029-.472 5.464 5.464 0 0 1 1.446-3.525 5.569 5.569 0 0 1 1.762-1.322 5.254 5.254 0 0 1 2.016-.57 4.528 4.528 0 0 1 .026.5Z" data-name="Group 74582"/></svg>